<mxfile host="Electron" agent="Mozilla/5.0 (Windows NT 10.0; Win64; x64) AppleWebKit/537.36 (KHTML, like Gecko) draw.io/28.0.6 Chrome/138.0.7204.100 Electron/37.2.3 Safari/537.36" version="28.0.6">
  <diagram id="_qt5lniw25Vx2tYiMeuX" name="Página-1">
    <mxGraphModel dx="1226" dy="746" grid="1" gridSize="10" guides="1" tooltips="1" connect="1" arrows="1" fold="1" page="1" pageScale="1" pageWidth="827" pageHeight="1169" math="0" shadow="0">
      <root>
        <mxCell id="0" />
        <mxCell id="1" parent="0" />
        <mxCell id="2-kfKoFbYWzu5PI2lUr2-45" value="" style="rounded=1;whiteSpace=wrap;html=1;" vertex="1" parent="1">
          <mxGeometry x="480" y="250" width="120" height="40" as="geometry" />
        </mxCell>
        <mxCell id="2-kfKoFbYWzu5PI2lUr2-7" value="Actor" style="shape=umlActor;verticalLabelPosition=bottom;verticalAlign=top;html=1;outlineConnect=0;" vertex="1" parent="1">
          <mxGeometry x="180" y="30" width="30" height="60" as="geometry" />
        </mxCell>
        <mxCell id="2-kfKoFbYWzu5PI2lUr2-2" value="" style="rounded=1;whiteSpace=wrap;html=1;" vertex="1" parent="1">
          <mxGeometry x="135" y="60" width="120" height="60" as="geometry" />
        </mxCell>
        <mxCell id="2-kfKoFbYWzu5PI2lUr2-1" value="" style="rounded=1;whiteSpace=wrap;html=1;" vertex="1" parent="1">
          <mxGeometry x="10" y="10" width="80" height="50" as="geometry" />
        </mxCell>
        <mxCell id="2-kfKoFbYWzu5PI2lUr2-3" value="" style="rounded=1;whiteSpace=wrap;html=1;" vertex="1" parent="1">
          <mxGeometry x="325" y="20" width="120" height="50" as="geometry" />
        </mxCell>
        <mxCell id="2-kfKoFbYWzu5PI2lUr2-4" value="Inicio" style="text;html=1;align=center;verticalAlign=middle;whiteSpace=wrap;rounded=0;" vertex="1" parent="1">
          <mxGeometry x="20" y="20" width="60" height="30" as="geometry" />
        </mxCell>
        <mxCell id="2-kfKoFbYWzu5PI2lUr2-5" value="Cliente solicita boleto" style="text;html=1;align=center;verticalAlign=middle;whiteSpace=wrap;rounded=0;" vertex="1" parent="1">
          <mxGeometry x="150" y="75" width="90" height="30" as="geometry" />
        </mxCell>
        <mxCell id="2-kfKoFbYWzu5PI2lUr2-6" value="Cancún = $1,250&lt;div&gt;Mérida = $1,950&lt;/div&gt;" style="text;html=1;align=center;verticalAlign=middle;whiteSpace=wrap;rounded=0;" vertex="1" parent="1">
          <mxGeometry x="325" y="20" width="120" height="50" as="geometry" />
        </mxCell>
        <mxCell id="2-kfKoFbYWzu5PI2lUr2-8" value="" style="endArrow=classic;html=1;rounded=0;" edge="1" parent="1">
          <mxGeometry width="50" height="50" relative="1" as="geometry">
            <mxPoint x="255" y="85" as="sourcePoint" />
            <mxPoint x="305" y="170" as="targetPoint" />
            <Array as="points">
              <mxPoint x="305" y="85" />
            </Array>
          </mxGeometry>
        </mxCell>
        <mxCell id="2-kfKoFbYWzu5PI2lUr2-9" value="" style="endArrow=none;html=1;rounded=0;" edge="1" parent="1">
          <mxGeometry width="50" height="50" relative="1" as="geometry">
            <mxPoint x="399.5" y="180" as="sourcePoint" />
            <mxPoint x="399.5" y="70" as="targetPoint" />
          </mxGeometry>
        </mxCell>
        <mxCell id="2-kfKoFbYWzu5PI2lUr2-23" value="" style="endArrow=none;html=1;rounded=0;" edge="1" parent="1">
          <mxGeometry width="50" height="50" relative="1" as="geometry">
            <mxPoint y="170" as="sourcePoint" />
            <mxPoint x="550" y="170" as="targetPoint" />
          </mxGeometry>
        </mxCell>
        <mxCell id="2-kfKoFbYWzu5PI2lUr2-24" value="" style="endArrow=none;html=1;rounded=0;" edge="1" parent="1">
          <mxGeometry width="50" height="50" relative="1" as="geometry">
            <mxPoint y="240" as="sourcePoint" />
            <mxPoint x="550" y="240" as="targetPoint" />
          </mxGeometry>
        </mxCell>
        <mxCell id="2-kfKoFbYWzu5PI2lUr2-25" value="" style="endArrow=none;html=1;rounded=0;" edge="1" parent="1">
          <mxGeometry width="50" height="50" relative="1" as="geometry">
            <mxPoint y="320" as="sourcePoint" />
            <mxPoint x="550" y="320" as="targetPoint" />
          </mxGeometry>
        </mxCell>
        <mxCell id="2-kfKoFbYWzu5PI2lUr2-27" value="CLIENTE" style="text;html=1;align=center;verticalAlign=middle;whiteSpace=wrap;rounded=0;" vertex="1" parent="1">
          <mxGeometry x="20" y="190" width="60" height="30" as="geometry" />
        </mxCell>
        <mxCell id="2-kfKoFbYWzu5PI2lUr2-28" value="SISTEMA" style="text;html=1;align=center;verticalAlign=middle;whiteSpace=wrap;rounded=0;" vertex="1" parent="1">
          <mxGeometry x="20" y="270" width="60" height="30" as="geometry" />
        </mxCell>
        <mxCell id="2-kfKoFbYWzu5PI2lUr2-30" value="" style="endArrow=none;html=1;rounded=0;" edge="1" parent="1">
          <mxGeometry width="50" height="50" relative="1" as="geometry">
            <mxPoint x="100" y="320" as="sourcePoint" />
            <mxPoint x="100" y="170" as="targetPoint" />
          </mxGeometry>
        </mxCell>
        <mxCell id="2-kfKoFbYWzu5PI2lUr2-31" value="" style="rhombus;whiteSpace=wrap;html=1;" vertex="1" parent="1">
          <mxGeometry x="360" y="180" width="80" height="60" as="geometry" />
        </mxCell>
        <mxCell id="2-kfKoFbYWzu5PI2lUr2-32" value="Consulta el vuelo" style="text;html=1;align=center;verticalAlign=middle;whiteSpace=wrap;rounded=0;" vertex="1" parent="1">
          <mxGeometry x="355" y="200" width="90" height="30" as="geometry" />
        </mxCell>
        <mxCell id="2-kfKoFbYWzu5PI2lUr2-33" value="" style="endArrow=none;html=1;rounded=0;" edge="1" parent="1">
          <mxGeometry width="50" height="50" relative="1" as="geometry">
            <mxPoint x="310" y="210" as="sourcePoint" />
            <mxPoint x="360" y="210" as="targetPoint" />
          </mxGeometry>
        </mxCell>
        <mxCell id="2-kfKoFbYWzu5PI2lUr2-34" value="" style="endArrow=none;html=1;rounded=0;" edge="1" parent="1">
          <mxGeometry width="50" height="50" relative="1" as="geometry">
            <mxPoint x="310" y="260" as="sourcePoint" />
            <mxPoint x="310" y="210" as="targetPoint" />
            <Array as="points" />
          </mxGeometry>
        </mxCell>
        <mxCell id="2-kfKoFbYWzu5PI2lUr2-36" value="" style="rounded=1;whiteSpace=wrap;html=1;" vertex="1" parent="1">
          <mxGeometry x="225" y="260" width="100" height="30" as="geometry" />
        </mxCell>
        <mxCell id="2-kfKoFbYWzu5PI2lUr2-37" value="Consulta vuelo y tarifa" style="text;html=1;align=center;verticalAlign=middle;whiteSpace=wrap;rounded=0;" vertex="1" parent="1">
          <mxGeometry x="225" y="260" width="95" height="30" as="geometry" />
        </mxCell>
        <mxCell id="2-kfKoFbYWzu5PI2lUr2-38" value="" style="endArrow=classic;html=1;rounded=0;" edge="1" parent="1">
          <mxGeometry width="50" height="50" relative="1" as="geometry">
            <mxPoint x="325" y="270" as="sourcePoint" />
            <mxPoint x="360" y="270" as="targetPoint" />
          </mxGeometry>
        </mxCell>
        <mxCell id="2-kfKoFbYWzu5PI2lUr2-40" value="" style="rounded=1;whiteSpace=wrap;html=1;" vertex="1" parent="1">
          <mxGeometry x="365" y="255" width="70" height="30" as="geometry" />
        </mxCell>
        <mxCell id="2-kfKoFbYWzu5PI2lUr2-41" value="" style="verticalLabelPosition=bottom;verticalAlign=top;html=1;shape=process;whiteSpace=wrap;rounded=1;size=0.14;arcSize=6;labelBackgroundColor=#1A1A1A;labelBorderColor=#330033;fontColor=#000000;" vertex="1" parent="1">
          <mxGeometry x="375" y="260" width="50" height="20" as="geometry" />
        </mxCell>
        <mxCell id="2-kfKoFbYWzu5PI2lUr2-42" value="" style="endArrow=classic;html=1;rounded=0;" edge="1" parent="1">
          <mxGeometry width="50" height="50" relative="1" as="geometry">
            <mxPoint x="437" y="270" as="sourcePoint" />
            <mxPoint x="472" y="270" as="targetPoint" />
          </mxGeometry>
        </mxCell>
        <mxCell id="2-kfKoFbYWzu5PI2lUr2-43" value="Emitir y entregar boleto" style="text;html=1;align=center;verticalAlign=middle;whiteSpace=wrap;rounded=0;" vertex="1" parent="1">
          <mxGeometry x="492.5" y="255" width="95" height="30" as="geometry" />
        </mxCell>
        <mxCell id="2-kfKoFbYWzu5PI2lUr2-46" value="" style="endArrow=none;html=1;rounded=0;exitX=1;exitY=0;exitDx=0;exitDy=0;" edge="1" parent="1" source="2-kfKoFbYWzu5PI2lUr2-40">
          <mxGeometry width="50" height="50" relative="1" as="geometry">
            <mxPoint x="420" y="250" as="sourcePoint" />
            <mxPoint x="440" y="210" as="targetPoint" />
          </mxGeometry>
        </mxCell>
        <mxCell id="2-kfKoFbYWzu5PI2lUr2-47" value="Paga el boleto" style="text;html=1;align=center;verticalAlign=middle;whiteSpace=wrap;rounded=0;" vertex="1" parent="1">
          <mxGeometry x="432.5" y="210" width="60" height="30" as="geometry" />
        </mxCell>
        <mxCell id="2-kfKoFbYWzu5PI2lUr2-48" value="" style="endArrow=none;html=1;rounded=0;" edge="1" parent="1">
          <mxGeometry width="50" height="50" relative="1" as="geometry">
            <mxPoint x="550" y="370" as="sourcePoint" />
            <mxPoint x="550" y="290" as="targetPoint" />
          </mxGeometry>
        </mxCell>
        <mxCell id="2-kfKoFbYWzu5PI2lUr2-49" value="" style="endArrow=none;html=1;rounded=0;" edge="1" parent="1">
          <mxGeometry width="50" height="50" relative="1" as="geometry">
            <mxPoint x="492.5" y="370" as="sourcePoint" />
            <mxPoint x="552.5" y="370" as="targetPoint" />
          </mxGeometry>
        </mxCell>
        <mxCell id="2-kfKoFbYWzu5PI2lUr2-51" value="Actor" style="shape=umlActor;verticalLabelPosition=bottom;verticalAlign=top;html=1;outlineConnect=0;" vertex="1" parent="1">
          <mxGeometry x="450" y="330" width="30" height="60" as="geometry" />
        </mxCell>
        <mxCell id="2-kfKoFbYWzu5PI2lUr2-53" value="Entity" style="shape=ext;margin=3;double=1;whiteSpace=wrap;html=1;align=center;" vertex="1" parent="1">
          <mxGeometry x="480" y="340" width="50" height="20" as="geometry" />
        </mxCell>
        <mxCell id="2-kfKoFbYWzu5PI2lUr2-54" value="" style="endArrow=none;html=1;rounded=0;" edge="1" parent="1">
          <mxGeometry width="50" height="50" relative="1" as="geometry">
            <mxPoint x="373" y="370" as="sourcePoint" />
            <mxPoint x="433" y="370" as="targetPoint" />
          </mxGeometry>
        </mxCell>
        <mxCell id="2-kfKoFbYWzu5PI2lUr2-55" value="Actor" style="shape=umlActor;verticalLabelPosition=bottom;verticalAlign=top;html=1;outlineConnect=0;" vertex="1" parent="1">
          <mxGeometry x="295" y="330" width="30" height="60" as="geometry" />
        </mxCell>
        <mxCell id="2-kfKoFbYWzu5PI2lUr2-56" value="Entity" style="shape=ext;margin=3;double=1;whiteSpace=wrap;html=1;align=center;" vertex="1" parent="1">
          <mxGeometry x="320" y="340" width="50" height="20" as="geometry" />
        </mxCell>
        <mxCell id="2-kfKoFbYWzu5PI2lUr2-57" value="" style="rounded=1;whiteSpace=wrap;html=1;" vertex="1" parent="1">
          <mxGeometry x="10" y="340" width="120" height="60" as="geometry" />
        </mxCell>
        <mxCell id="2-kfKoFbYWzu5PI2lUr2-58" value="Fin" style="text;html=1;align=center;verticalAlign=middle;whiteSpace=wrap;rounded=0;" vertex="1" parent="1">
          <mxGeometry x="30" y="355" width="60" height="30" as="geometry" />
        </mxCell>
      </root>
    </mxGraphModel>
  </diagram>
</mxfile>
